<svg class="verifiedIcon" xmlns="http://www.w3.org/2000/svg" x="0px" y="0px" width="50" height="50" viewBox="0 0 252 252" style="fill:#7289da;"><g transform="translate(13.482,13.482) scale(0.893,0.893)"><g fill="none" fill-rule="nonzero" stroke="none" stroke-width="none" stroke-linecap="butt" stroke-linejoin="none" stroke-miterlimit="10" stroke-dasharray="" stroke-dashoffset="0" font-family="none" font-weight="none" font-size="none" text-anchor="none" style="mix-blend-mode: normal"><g fill="#7289da" stroke="#ffffff" stroke-width="27" stroke-linejoin="round"><path d="M229.4145,146.1705c4.893,15.0885 -1.911,31.5 -16.0335,38.7135l-18.8685,9.639l-9.639,18.8685c-7.2135,14.1225 -23.625,20.916 -38.7135,16.0335l-20.16,-6.531l-20.1705,6.5205c-15.0885,4.893 -31.5,-1.911 -38.7135,-16.0335l-9.639,-18.8685l-18.8685,-9.639c-14.1225,-7.2135 -20.916,-23.625 -16.0335,-38.7135l6.531,-20.16l-6.531,-20.16c-4.8825,-15.0885 1.911,-31.5 16.0335,-38.7135l18.8685,-9.6495l9.6495,-18.8685c7.2135,-14.1225 23.625,-20.916 38.7135,-16.0335l20.16,6.531l20.1705,-6.5205c15.0885,-4.893 31.5,1.911 38.7135,16.0335l9.639,18.8685l18.8685,9.639c14.1225,7.2135 20.916,23.625 16.0335,38.7135l-6.531,20.16zM122.9235,164.9235l55.5765,-55.5765c4.095,-4.095 4.095,-10.752 0,-14.847c-4.095,-4.095 -10.752,-4.095 -14.847,0l-48.153,48.153l-16.653,-16.653c-4.095,-4.095 -10.752,-4.095 -14.847,0c-4.095,4.095 -4.095,10.752 0,14.847l24.0765,24.0765c4.095,4.095 10.752,4.095 14.847,0z"></path></g><path d="M0,252v-252h252v252z" fill="none" stroke="none" stroke-width="1" stroke-linejoin="miter"></path><g fill="#7289da" stroke="none" stroke-width="1" stroke-linejoin="miter"><path d="M222.894,126l6.531,-20.16c4.8825,-15.0885 -1.911,-31.5 -16.0335,-38.7135l-18.8685,-9.639l-9.639,-18.8685c-7.2135,-14.1225 -23.625,-20.9265 -38.7135,-16.0335l-20.1705,6.5205l-20.16,-6.531c-15.0885,-4.8825 -31.5,1.911 -38.7135,16.0335l-9.6495,18.8685l-18.8685,9.6495c-14.1225,7.2135 -20.916,23.625 -16.0335,38.7135l6.531,20.16l-6.531,20.16c-4.8825,15.0885 1.911,31.5 16.0335,38.7135l18.8685,9.639l9.639,18.8685c7.2135,14.1225 23.625,20.9265 38.7135,16.0335l20.1705,-6.5205l20.16,6.531c15.0885,4.8825 31.5,-1.911 38.7135,-16.0335l9.639,-18.8685l18.8685,-9.639c14.1225,-7.2135 20.9265,-23.625 16.0335,-38.7135zM108.0765,164.9235l-24.0765,-24.0765c-4.095,-4.095 -4.095,-10.752 0,-14.847v0c4.095,-4.095 10.752,-4.095 14.847,0l16.653,16.653l48.153,-48.153c4.095,-4.095 10.752,-4.095 14.847,0v0c4.095,4.095 4.095,10.752 0,14.847l-55.5765,55.5765c-4.095,4.095 -10.752,4.095 -14.847,0z"></path></g><path d="" fill="none" stroke="none" stroke-width="1" stroke-linejoin="miter"></path></g></g></svg>